<svg version="1.1" id="Layer_1" xmlns="http://www.w3.org/2000/svg" xmlns:xlink="http://www.w3.org/1999/xlink" x="0px" y="0px"
	 width="100%" viewBox="0 0 1024 720" enable-background="new 0 0 1024 720" xml:space="preserve">
<path fill="#000000" opacity="1.000000" stroke="none" 
	d="
M528.729919,29.149504 
	C544.392151,42.140930 551.047791,58.420864 547.228821,78.112663 
	C544.024963,94.632843 533.785095,106.380981 518.459961,112.743782 
	C508.891754,116.716362 505.360016,123.253860 505.350555,132.777878 
	C505.340973,142.443939 505.326294,152.110138 505.376587,161.775955 
	C505.383972,163.200043 504.862183,164.790726 505.637787,165.546844 
	C510.532440,161.183197 515.579590,157.022156 520.238159,152.463959 
	C532.014160,140.941666 543.570984,129.195724 555.312317,117.637650 
	C559.065308,113.943199 561.671204,110.613876 561.043152,104.395409 
	C559.861206,92.692917 570.968079,83.823975 583.315063,85.979698 
	C586.750854,86.579567 588.591858,85.517189 590.635864,83.373886 
	C594.754395,79.055176 598.468933,75.399582 596.101318,67.978058 
	C593.530457,59.919106 600.411072,50.541512 608.231873,48.826752 
	C617.293640,46.839882 625.726624,51.852318 627.990234,60.570881 
	C630.247070,69.262924 625.560242,77.829727 616.919312,80.808624 
	C616.762573,80.862694 616.597595,81.002045 616.457092,80.978493 
	C607.872498,79.540100 604.428162,86.460899 599.710205,91.287125 
	C597.198547,93.856400 596.514343,96.498604 597.794373,100.259163 
	C601.633118,111.536980 592.930115,123.145767 580.893921,123.331787 
	C579.560974,123.352394 578.122925,123.664742 576.911438,123.280739 
	C569.792847,121.024330 565.569702,125.060547 561.095642,129.691666 
	C549.865479,141.316025 538.330444,152.647217 526.846741,164.024429 
	C522.612732,168.219193 520.136292,173.055405 520.330322,179.113785 
	C520.469543,183.460175 518.452271,186.946655 515.275879,189.528137 
	C508.175385,195.298691 505.503052,202.661301 506.155945,211.609222 
	C506.458344,215.753845 506.529694,219.965042 506.162415,224.097763 
	C505.531921,231.192154 509.387024,235.575058 514.637573,239.693451 
	C519.700439,236.124298 523.072449,231.152161 526.852539,226.581253 
	C527.845276,225.380844 527.113037,224.066360 526.887329,222.764709 
	C524.513733,209.076218 534.053467,196.372437 550.097717,199.555084 
	C552.757751,200.082764 555.005737,199.354233 556.789734,197.211304 
	C558.918518,194.654236 560.874207,191.876892 563.349548,189.700714 
	C568.107727,185.517624 570.198914,181.309677 568.131653,174.519165 
	C565.899902,167.188461 572.836243,157.388901 580.425964,155.066925 
	C588.959167,152.456284 597.893433,156.403198 602.006531,164.355713 
	C604.105408,168.413879 603.963440,172.942001 604.796753,177.090714 
	C607.088684,177.561432 607.893250,176.032959 608.890015,175.046310 
	C616.469971,167.543289 623.912476,159.899277 631.583740,152.491669 
	C634.445984,149.727753 635.100891,146.778641 634.361572,143.028320 
	C630.945801,125.699974 638.634033,111.051384 655.203308,105.254166 
	C671.992676,99.379929 692.401733,107.359673 697.285767,129.118759 
	C701.686035,148.722488 686.167053,166.036560 666.290588,167.026276 
	C659.585022,167.360153 653.155151,164.920807 647.511597,161.150467 
	C644.595581,159.202286 642.397461,159.575455 640.022949,161.878113 
	C631.415527,170.225037 622.773071,178.536377 614.085205,186.799469 
	C612.057861,188.727676 612.028931,190.344040 614.104248,192.207672 
	C615.837646,193.764206 617.472656,195.439865 619.057983,197.149246 
	C621.050049,199.297134 623.195190,199.955231 626.206421,199.248398 
	C632.943115,197.667023 639.302429,198.656357 643.833191,204.400375 
	C648.588379,210.428909 650.062134,217.180344 646.565369,224.460297 
	C643.147888,231.575211 637.321533,234.773987 629.613770,234.300369 
	C625.256958,234.032669 622.159912,235.412903 619.176880,238.674149 
	C611.199463,247.395584 602.667908,255.610825 594.709106,264.348419 
	C590.165344,269.336884 584.679993,271.397095 578.290344,271.245911 
	C574.079834,271.146240 570.956177,272.680023 568.150269,275.607727 
	C557.893677,286.309387 547.481445,296.862946 537.295654,307.631042 
	C529.763733,315.593506 529.964233,330.605316 537.516907,338.554260 
	C544.056580,345.437042 550.773865,352.153564 557.214722,359.126404 
	C559.774475,361.897583 561.703613,361.929504 564.086914,359.097198 
	C566.121887,356.678833 568.672485,354.665161 570.529663,352.131378 
	C577.805847,342.204498 587.975037,340.811249 599.082703,342.191101 
	C608.007202,343.299683 616.935242,341.734192 625.866821,342.438782 
	C628.187744,342.621918 630.207947,340.993195 631.871338,339.231323 
	C637.702209,333.054993 643.517212,326.862183 649.445190,320.779877 
	C651.540771,318.629761 652.091919,316.295807 651.384583,313.487518 
	C649.465393,305.868805 651.821106,299.491577 657.918457,294.937653 
	C664.457031,290.054199 671.734497,289.358063 678.910767,293.820374 
	C685.557800,297.953674 688.161865,304.454865 687.057129,311.823029 
	C686.460571,315.802216 687.771790,317.967010 690.160950,320.489624 
	C694.608337,325.185516 698.847168,329.823212 706.345154,326.744293 
	C707.765930,326.160889 709.833740,326.194366 711.269287,326.772278 
	C717.434509,329.254181 721.363892,326.115540 725.104675,321.903259 
	C727.092651,319.664734 729.294189,317.608948 731.471497,315.546936 
	C735.291565,311.929230 737.660583,308.195404 736.017151,302.344971 
	C734.871826,298.267853 737.159973,294.252625 739.528320,290.726593 
	C742.684631,286.027679 742.751709,282.460144 738.747070,278.747162 
	C733.383728,273.774384 727.813965,269.060577 723.035339,263.463196 
	C720.944824,261.014496 717.950012,260.190582 714.499084,260.236328 
	C700.002380,260.428589 685.501831,260.347992 671.002808,260.315765 
	C668.645996,260.310516 666.278687,260.352203 664.132324,261.299591 
	C656.206543,264.797821 648.079773,267.615906 639.558899,269.286163 
	C636.455383,269.894470 634.257446,272.189636 632.236694,274.316925 
	C623.748901,283.251892 615.050781,291.964630 605.982117,300.307861 
	C603.394897,302.688171 602.243530,305.468079 602.233582,309.123352 
	C602.205322,319.464600 593.068115,327.284882 582.582092,326.300964 
	C572.386841,325.344330 565.174316,316.042267 566.780212,305.921051 
	C568.409973,295.649414 578.438904,288.989258 588.680542,292.001007 
	C593.307434,293.361664 596.188416,292.068359 599.244934,288.893433 
	C612.642212,274.977386 626.168762,261.185730 639.670410,247.370499 
	C641.065002,245.943497 642.394409,244.239777 644.111755,243.374619 
	C659.478760,235.633377 668.690186,221.178925 680.844055,209.946609 
	C682.815308,208.124802 683.252197,206.140320 682.874939,203.290802 
	C681.018799,189.269043 690.961670,180.214859 704.910645,183.161118 
	C707.825195,183.776718 709.736572,183.024277 711.559326,181.081467 
	C714.291565,178.169342 716.901855,175.130844 719.777893,172.368866 
	C722.757141,169.507736 726.189880,168.600494 729.487488,171.848679 
	C732.612122,174.926590 731.503906,178.232224 729.350647,181.323547 
	C728.598450,182.403397 727.624390,183.377731 726.596680,184.208557 
	C720.755432,188.930923 717.546814,194.307693 718.064148,202.524902 
	C718.629333,211.501266 707.742493,219.219360 696.983093,218.164642 
	C693.049744,217.779083 690.392029,218.744614 687.769592,221.365463 
	C681.293091,227.838089 674.407288,233.912430 668.693237,241.117279 
	C667.695068,242.375870 666.180115,243.441360 666.639038,245.474548 
	C667.951965,247.321060 669.957214,246.609848 671.678162,246.617432 
	C685.177124,246.676910 698.681274,246.441483 712.173096,246.756180 
	C717.281555,246.875336 719.494263,245.209457 720.663330,240.148544 
	C723.864624,226.289536 732.540466,217.358627 746.546204,214.116745 
	C761.988525,210.542313 779.101379,219.159668 785.155762,233.919861 
	C790.985840,248.133224 787.026611,264.556366 772.523071,274.161896 
	C768.940247,276.534760 764.045288,277.535034 762.953857,282.924744 
	C762.450439,285.410797 762.469238,287.249390 764.178711,289.338196 
	C768.889099,295.093689 771.240234,301.584595 767.651733,308.740723 
	C764.056030,315.911377 757.773743,318.841583 749.915894,318.282410 
	C746.792664,318.060181 744.507751,319.091309 742.432373,321.337097 
	C739.153931,324.884857 735.908264,328.515167 732.253540,331.649719 
	C727.713562,335.543518 725.913452,339.999207 726.193726,346.070282 
	C726.613831,355.168823 718.464661,362.741699 708.863892,363.094299 
	C699.095520,363.453064 689.209595,355.670959 689.983887,346.483856 
	C690.778870,337.051361 684.120483,333.447571 679.097412,328.262939 
	C677.921326,327.049042 676.364197,327.477142 674.844604,327.710968 
	C672.718994,328.038025 670.356262,328.760010 668.443665,328.174377 
	C662.581543,326.379578 659.009644,329.386353 655.549438,333.288086 
	C651.243835,338.143127 646.090576,342.200165 642.241272,347.497986 
	C638.033142,353.289703 637.962585,356.434845 642.844421,361.597260 
	C653.605774,372.977142 664.910034,383.814880 676.305176,394.558868 
	C680.546692,398.558044 684.628601,402.729584 688.711487,406.892944 
	C690.934570,409.159821 693.281067,409.876099 696.322876,408.535522 
	C709.385071,402.779022 724.400757,414.679993 722.260010,427.832428 
	C721.334717,433.517029 723.618286,437.244354 727.552246,440.810089 
	C731.991821,444.834045 736.126892,449.198975 740.314697,453.493347 
	C742.258667,455.486816 744.301941,455.973053 747.069336,455.337494 
	C756.699646,453.125732 765.641113,458.269348 767.210754,466.684387 
	C768.955811,476.040039 763.241699,484.051636 753.509094,485.895111 
	C744.916748,487.522583 735.707764,480.259674 735.750000,471.501495 
	C735.767822,467.800690 734.519409,465.203094 731.895386,462.804138 
	C726.610840,457.972748 721.452209,453.001556 716.310791,448.016724 
	C714.258118,446.026550 712.310242,445.318054 709.207275,445.936523 
	C694.903503,448.787628 683.758606,439.491058 683.768921,424.867737 
	C683.771118,421.713257 682.637573,419.542114 680.487122,417.457642 
	C666.730042,404.122955 653.022705,390.736755 639.331421,377.334442 
	C636.449951,374.513794 633.230042,372.992432 629.060242,373.220184 
	C622.176331,373.596252 614.765015,371.803650 609.190002,377.527466 
	C602.425293,384.472656 594.410767,390.770416 596.185852,402.390198 
	C597.143250,408.657318 599.584167,410.448822 605.472473,408.111542 
	C615.982544,403.939606 626.245300,404.279114 635.213074,411.452576 
	C644.677246,419.023071 649.454651,428.901978 646.600647,441.395081 
	C646.032288,443.882874 646.592468,445.959503 648.247314,447.866516 
	C655.912903,456.700409 665.205872,463.859100 673.294556,472.254456 
	C675.374817,474.413574 677.542847,473.329773 679.765503,472.636047 
	C688.575684,469.886353 695.948486,472.380280 701.200989,479.848022 
	C707.276733,488.486481 704.604736,499.606171 695.011719,505.605499 
	C687.144165,510.525665 675.336792,507.577454 670.520813,499.495178 
	C668.612183,496.292145 667.211060,492.946930 667.659607,489.103821 
	C667.973816,486.411743 667.025024,484.464996 664.965027,482.575134 
	C657.357300,475.595856 649.906677,468.443024 642.486328,461.263062 
	C639.729736,458.595764 637.384216,458.185120 633.726685,460.238342 
	C612.779114,471.997894 591.131836,463.253326 585.291260,440.906677 
	C584.137146,436.490692 584.385681,431.972595 585.137512,427.527008 
	C587.169128,415.513733 585.733704,404.743103 575.560913,396.368439 
	C571.339355,392.893097 567.645508,388.730530 563.985291,384.635864 
	C561.589844,381.956085 559.746033,382.085419 557.435791,384.584930 
	C549.414917,393.263031 541.356812,401.907654 533.227539,410.484100 
	C530.828674,413.014893 528.155457,415.286621 525.594727,417.662781 
	C519.726135,423.108398 519.589661,430.450195 519.433472,437.557648 
	C519.155273,450.213379 519.301453,462.879974 519.382935,475.541290 
	C519.413879,480.338287 520.934082,484.695343 524.146851,488.363556 
	C530.957031,496.139191 538.342163,503.357178 545.694336,510.608795 
	C548.031372,512.913879 550.326843,513.533630 553.719788,512.399231 
	C563.391724,509.165375 572.296326,513.895020 575.477783,523.457458 
	C578.539612,532.660095 573.631226,542.586914 564.279297,546.105774 
	C555.049316,549.578674 545.162964,545.406250 541.518188,536.430847 
	C541.030518,535.229980 540.513306,533.805359 540.712646,532.600647 
	C541.777771,526.162537 538.351685,522.057373 534.062256,517.970703 
	C526.826477,511.076935 519.971497,503.784943 512.895386,496.721527 
	C507.930939,491.766022 505.563568,486.021179 505.576050,478.842957 
	C505.702057,406.347504 505.634552,333.851746 505.689941,261.356110 
	C505.693451,256.769196 504.951141,252.401550 503.178253,248.234634 
	C502.127045,245.763962 500.655853,243.028778 497.642944,243.102585 
	C494.672211,243.175385 493.229675,245.893143 492.244263,248.408936 
	C490.714630,252.314194 490.311340,256.423920 490.313477,260.624542 
	C490.349457,331.453613 490.087555,402.284515 490.584503,473.110107 
	C490.671906,485.572571 485.931122,494.327484 477.283569,502.191132 
	C470.756531,508.126465 464.684601,514.559631 458.320557,520.678101 
	C455.796112,523.105164 454.974335,526.007568 455.370331,529.299561 
	C456.436066,538.160034 450.248718,545.458313 440.228973,547.148926 
	C431.679169,548.591492 422.761871,542.820862 420.979614,534.152710 
	C419.072845,524.878784 421.834808,516.650330 431.137451,512.733582 
	C435.142212,511.047424 439.270386,511.283844 443.357605,512.457275 
	C445.342804,513.027222 447.233032,513.542175 448.939362,511.830231 
	C456.810303,503.933197 465.036652,496.379852 472.249207,487.845795 
	C475.531647,483.961945 476.541382,479.250031 476.619232,474.353790 
	C476.860291,459.194855 476.593964,444.043457 475.886719,428.894806 
	C475.656219,423.958069 473.011780,420.365723 469.931519,417.140869 
	C459.230042,405.937042 448.322144,394.930298 437.485168,383.856049 
	C435.987915,382.326050 434.556885,381.926788 432.832001,383.755676 
	C427.461487,389.450012 421.840302,394.913483 416.589478,400.713776 
	C409.376068,408.681915 409.420502,418.140808 411.447906,427.981812 
	C414.148987,441.093079 409.419800,451.605225 399.207550,459.592773 
	C389.324860,467.322571 378.379730,467.364166 367.240906,462.375549 
	C357.066620,457.818848 357.135284,457.796143 348.998596,465.781616 
	C343.415283,471.261230 337.706573,476.613251 332.042206,482.010010 
	C329.949005,484.004272 328.831757,486.065399 328.680420,489.304504 
	C328.327026,496.871033 325.020203,503.060730 317.613220,506.272919 
	C310.867493,509.198273 304.511261,508.120300 298.870422,503.730286 
	C291.907471,498.311249 290.433258,488.999084 294.833893,480.677643 
	C298.631042,473.497375 308.686401,469.437408 316.843933,472.383423 
	C320.383179,473.661560 322.795013,473.231537 325.315216,470.692596 
	C332.828156,463.123718 340.396576,455.609039 348.012024,448.143341 
	C350.237518,445.961609 350.877441,443.798035 350.158203,440.570374 
	C347.240570,427.476349 355.477936,412.815033 368.132690,407.830139 
	C376.016266,404.724670 383.800568,403.988434 391.814728,407.634125 
	C396.926025,409.959290 400.127136,407.753906 400.645355,402.163513 
	C401.111328,397.137482 400.053680,392.570587 396.719910,388.652863 
	C395.102631,386.752197 393.333466,384.953278 391.924408,382.907623 
	C384.602509,372.277771 373.773132,372.560516 362.761749,373.421204 
	C360.076935,373.631042 358.324829,375.556030 356.556427,377.327179 
	C347.489716,386.408020 338.470306,395.536560 329.355072,404.568390 
	C325.455627,408.432129 321.575775,412.309296 317.399811,415.909698 
	C314.490540,418.417938 312.356171,421.224396 312.921631,426.130981 
	C314.297699,438.071838 301.536804,448.921600 289.915527,445.795258 
	C284.973267,444.465668 281.527557,445.518677 278.247803,448.743591 
	C272.900726,454.001312 267.687012,459.395447 262.301666,464.612946 
	C260.534821,466.324707 260.573334,468.369812 260.212311,470.509766 
	C259.056519,477.360168 255.538025,482.656036 248.828079,485.084686 
	C242.741287,487.287781 237.356720,485.543518 232.971237,480.911469 
	C228.020752,475.682739 227.379150,468.956146 231.036636,462.475067 
	C234.239792,456.799164 241.151642,453.595398 247.634720,455.216492 
	C250.933655,456.041382 253.460907,455.455658 255.802933,453.109436 
	C260.982239,447.920898 266.231750,442.802612 271.427277,437.630157 
	C273.663940,435.403381 274.266083,432.968353 274.014740,429.579407 
	C273.017303,416.130890 282.337006,404.963257 297.139221,407.681702 
	C303.975098,408.937073 308.122894,407.453186 312.750061,402.543030 
	C325.545532,388.964813 338.922607,375.934479 352.079407,362.697144 
	C358.194641,356.544434 358.273071,353.494904 352.978821,346.824280 
	C348.085907,340.659393 342.194305,335.482819 336.808167,329.808655 
	C335.290802,328.210144 333.754822,327.452240 331.517975,328.109741 
	C330.436188,328.427765 329.066437,328.586670 328.057770,328.206116 
	C317.764435,324.322723 313.642609,332.875183 307.876587,338.102173 
	C306.355133,339.481415 307.325043,341.254578 307.248230,342.848969 
	C306.881683,350.455780 304.353882,356.928650 297.239746,360.612854 
	C290.140442,364.289429 283.069580,363.916016 276.605927,359.075836 
	C271.085754,354.942169 268.641632,349.160431 269.982086,342.404755 
	C270.569977,339.441742 269.817078,337.736603 267.871368,335.884949 
	C264.733856,332.899048 261.652924,329.842621 258.709839,326.666107 
	C254.587006,322.216278 250.454102,319.250854 243.596161,318.714294 
	C229.590790,317.618500 223.508347,303.561310 230.935989,291.679749 
	C235.284637,284.723511 234.530548,281.178131 227.499664,276.334351 
	C216.418060,268.699860 209.441101,258.802399 209.683670,244.774490 
	C209.962723,228.636917 224.740158,214.498810 240.848892,213.482971 
	C258.083740,212.396118 273.401611,223.930481 276.811615,241.359436 
	C277.545593,245.110733 279.578003,246.516830 282.803589,246.537659 
	C297.634247,246.633499 312.465973,246.575836 327.297180,246.532089 
	C327.888977,246.530334 328.479553,246.111282 329.015808,245.907501 
	C329.500824,243.340652 327.890442,241.970612 326.531647,240.592926 
	C319.745544,233.712326 312.862457,226.927032 306.104156,220.019531 
	C304.431030,218.309433 302.799011,217.927612 300.377319,218.165146 
	C288.277649,219.352081 280.131622,213.804672 278.034332,203.294388 
	C277.872620,202.483932 277.556000,201.539078 277.809479,200.836349 
	C280.771149,192.624939 275.063354,188.619598 269.872986,184.415344 
	C268.164581,183.031525 266.611450,181.620590 265.641418,179.599060 
	C264.176544,176.546265 264.402466,173.758804 266.860474,171.360016 
	C269.406769,168.875107 272.292419,169.249924 275.142151,170.749878 
	C277.407227,171.942108 278.858948,173.989273 280.404602,175.973007 
	C284.218231,180.867493 288.302063,183.988068 295.519867,182.445007 
	C305.751190,180.257706 316.045105,191.881561 313.859161,202.431870 
	C313.261597,205.316055 313.294861,207.764343 315.297058,209.845169 
	C324.636688,219.551682 333.147400,230.250992 343.945282,238.278915 
	C350.163879,242.902283 357.078003,246.497635 362.335938,252.464981 
	C373.907135,265.597443 386.686737,277.568207 398.889191,290.094788 
	C401.452606,292.726318 403.823334,293.201691 407.269867,292.059937 
	C414.869507,289.542297 421.997437,291.814514 426.380157,297.657837 
	C431.039246,303.869598 431.616089,311.887573 427.829254,317.799835 
	C423.465363,324.613007 416.286346,327.710480 408.433075,326.168488 
	C401.700500,324.846588 395.619049,317.817108 395.755249,310.776917 
	C395.830109,306.907776 394.514038,304.245483 391.808136,301.628265 
	C382.465576,292.591949 373.313721,283.358215 364.107574,274.181274 
	C361.099091,271.182343 357.705933,269.126434 353.438416,268.157440 
	C347.786102,266.873932 342.126678,265.490204 336.755432,263.152924 
	C331.659515,260.935425 326.326263,260.159943 320.712494,260.261932 
	C308.050812,260.492035 295.380676,260.430695 282.716949,260.262909 
	C279.119659,260.215271 276.325775,261.084595 273.891235,263.830750 
	C269.358917,268.943207 264.349915,273.532471 258.799469,277.600464 
	C253.547729,281.449554 252.992142,286.143738 256.986542,291.339508 
	C260.325378,295.682526 261.088287,300.482635 259.987762,305.492218 
	C259.350189,308.394409 260.099091,310.188599 262.050873,312.074829 
	C266.364197,316.243408 270.569733,320.524323 274.786255,324.791992 
	C276.904297,326.935730 279.354675,328.524139 282.355865,327.318481 
	C286.490784,325.657410 290.531830,326.050323 294.562073,327.229309 
	C298.260895,328.311401 301.081238,327.200958 303.466064,324.425537 
	C305.311310,322.278046 307.120514,320.099030 308.993439,317.976135 
	C310.431305,316.346375 311.002930,314.518066 310.347626,312.432648 
	C308.392029,306.209076 312.248230,297.101807 318.897736,293.321014 
	C324.869080,289.925812 333.708984,290.200317 339.216675,294.330933 
	C345.064728,298.716797 347.551575,305.984131 345.534607,313.462341 
	C344.829620,316.076111 345.054840,317.975983 346.952393,320.210144 
	C352.790710,327.084045 359.209076,333.373535 365.554810,339.748016 
	C367.552856,341.755127 369.748627,342.543854 372.669464,342.542908 
	C380.823730,342.540253 389.003571,342.998383 397.101135,341.912201 
	C411.462860,339.985687 422.231964,345.487701 430.631531,356.928223 
	C434.984253,362.856812 435.558502,362.549072 440.592590,357.051605 
	C446.440796,350.665039 452.532227,344.501068 458.524780,338.246887 
	C465.318146,331.156921 466.171478,317.704132 460.213043,309.838074 
	C458.611542,307.723877 456.740021,305.803711 454.901550,303.881409 
	C447.189636,295.817810 439.176178,288.022827 431.800446,279.664215 
	C426.626526,273.800842 420.688019,270.431580 412.888641,270.402191 
	C408.599152,270.386017 405.319977,268.390472 402.389893,265.421082 
	C393.260010,256.168640 384.015778,247.028854 374.908844,237.754044 
	C373.039948,235.850677 371.265411,235.015182 368.419189,235.131027 
	C360.941132,235.435425 354.620819,232.484909 350.578583,226.093201 
	C346.682953,219.933319 347.191162,213.479401 350.838226,207.206009 
	C354.013031,201.744965 362.095795,197.951477 368.372009,199.091751 
	C374.232513,200.156479 380.142059,197.038605 382.589630,191.776886 
	C383.485352,189.851318 382.755859,188.659286 381.446228,187.412201 
	C372.768738,179.149078 364.127045,170.848267 355.438416,162.596924 
	C353.069366,160.347092 351.009308,159.904404 347.631836,161.890884 
	C326.238098,174.473679 300.031036,160.941254 298.979034,136.423141 
	C298.089783,115.697266 320.163361,96.948578 342.136108,105.771675 
	C357.954254,112.123405 366.003815,127.521210 362.049927,144.081207 
	C361.382477,146.876663 361.055176,149.157410 363.368530,151.365738 
	C371.919922,159.528900 380.380829,167.786835 388.884735,175.999817 
	C389.602417,176.692886 390.376312,177.341080 391.714935,177.176666 
	C393.688049,174.677673 392.507599,171.476898 393.259827,168.642166 
	C395.931427,158.575043 405.261780,152.586807 415.176361,154.698578 
	C424.030518,156.584503 431.405518,168.616531 428.441040,176.731522 
	C427.811920,178.453568 426.651184,180.485062 427.975037,182.485397 
	C432.028015,188.609497 436.788025,194.137375 442.294739,198.989899 
	C443.649078,200.183319 445.492981,199.777542 447.122253,199.506958 
	C464.468445,196.626022 471.356445,211.276108 468.926666,222.345230 
	C468.217377,225.576599 468.764526,227.921204 471.021545,229.972519 
	C474.687683,233.304596 477.071533,237.901413 481.552795,240.862213 
	C486.749939,235.945847 490.863922,230.796631 490.670013,223.275375 
	C490.554108,218.778656 490.569397,214.274673 490.668976,209.777130 
	C490.838348,202.127243 488.183899,195.757538 482.174835,190.969833 
	C477.566925,187.298508 474.801971,182.940155 475.624176,176.771606 
	C476.209259,172.382004 473.913605,168.974747 471.048859,166.130600 
	C457.347351,152.527618 443.489685,139.081985 429.773895,125.493240 
	C427.402710,123.143997 425.055328,122.279213 421.774841,123.321930 
	C408.572571,127.518272 394.290924,115.908073 398.199219,99.522736 
	C398.951630,96.368385 398.444397,93.811607 396.355896,91.723679 
	C392.028229,87.397186 388.690521,82.453148 381.167480,81.755196 
	C371.850983,80.890877 367.071350,73.041153 367.673492,63.260002 
	C368.160614,55.346893 374.866241,48.819740 383.472931,47.881096 
	C393.782043,46.756779 403.971191,58.878075 400.583313,69.003693 
	C398.835815,74.226532 399.552673,77.532173 403.665222,81.046707 
	C407.154022,84.028206 409.907776,86.614372 415.308044,85.684326 
	C427.901367,83.515442 435.713898,95.497849 434.749207,105.296242 
	C434.298431,109.874344 435.699341,112.709167 438.586731,115.321182 
	C453.798279,129.081848 467.796753,144.071060 482.393097,158.453461 
	C484.976410,160.998886 487.145660,163.964493 489.745819,167.017502 
	C491.190887,165.078827 490.703217,163.066849 490.711792,161.247421 
	C490.758911,151.248489 490.551727,141.246628 490.717712,131.250534 
	C490.861053,122.615517 487.210724,116.703133 479.323059,113.140297 
	C466.289825,107.253227 456.998474,97.648163 451.849335,84.267181 
	C440.243713,54.107983 463.048889,19.719980 495.508270,19.538731 
	C507.590637,19.471266 518.554749,21.956268 528.729919,29.149504 
M519.454529,304.022583 
	C521.795044,308.213715 523.034729,304.093018 523.878601,303.107544 
	C535.683105,289.322388 549.220886,277.198425 561.390381,263.770996 
	C566.476990,258.158508 572.469177,254.816528 580.372070,256.080780 
	C583.263489,256.543304 585.617554,255.178299 587.505981,253.193954 
	C595.535889,244.755966 603.502380,236.257294 611.456177,227.747284 
	C612.455444,226.678162 613.486938,225.606094 613.462036,223.885300 
	C613.255798,209.660263 613.272217,209.660248 602.730469,198.702042 
	C602.268616,198.221909 601.796936,197.748856 601.366028,197.241730 
	C597.765625,193.004288 593.929443,189.714844 587.689697,192.057541 
	C586.137024,192.640488 584.039795,192.143677 582.290588,191.730072 
	C580.482056,191.302444 578.792847,191.458694 577.609314,192.657730 
	C572.828857,197.500931 567.997375,202.321686 564.122314,207.961639 
	C562.893433,209.750214 563.296265,211.793961 563.653503,213.768753 
	C565.979065,226.623962 557.633728,237.797180 545.036987,236.446365 
	C537.848633,235.675552 533.929016,238.161789 529.988953,242.842773 
	C529.240662,243.731857 528.404907,244.562256 527.527222,245.324982 
	C521.437561,250.616943 519.176697,257.371643 519.299011,265.309937 
	C519.494019,277.966431 519.373596,290.627747 519.454529,304.022583 
M429.486450,258.583679 
	C431.905609,260.103027 433.903931,262.084930 435.837006,264.171112 
	C447.824066,277.107574 459.825745,290.030670 471.886261,302.898529 
	C472.923279,304.005005 473.664948,305.785095 475.687317,305.640137 
	C477.170624,304.033966 476.650299,302.102203 476.616211,300.347046 
	C476.364410,287.373383 475.654449,274.395996 475.843079,261.430786 
	C475.970276,252.689102 469.845367,248.075455 465.093842,242.510895 
	C461.325043,238.097244 456.722382,235.846909 450.326782,236.165527 
	C438.406067,236.759415 429.907196,227.377106 431.969482,215.624969 
	C433.003845,209.730667 430.983459,206.100067 427.411835,202.430832 
	C424.856079,199.805237 422.248230,197.229858 419.639374,194.656662 
	C418.578339,193.610138 417.518982,192.643173 415.909790,192.327469 
	C401.993378,189.597397 401.997467,189.576706 391.856049,200.107056 
	C391.624969,200.347000 391.390686,200.583908 391.160431,200.824677 
	C386.658386,205.532562 382.199219,210.193863 384.244324,217.679138 
	C384.654999,219.182205 384.383057,221.088669 383.830811,222.590286 
	C382.849091,225.259583 383.881653,227.040649 385.615143,228.829666 
	C393.488403,236.955124 401.346436,245.095551 409.171509,253.267456 
	C411.505798,255.705200 414.214355,256.772186 417.635132,256.725555 
	C421.402802,256.674225 425.337830,255.888809 429.486450,258.583679 
M524.586914,400.065063 
	C532.325562,392.064453 539.940918,383.938812 547.865234,376.126587 
	C550.912292,373.122620 550.430115,371.203979 547.683716,368.402069 
	C539.561218,360.115479 531.698853,351.574219 523.699097,343.166504 
	C522.848877,342.272949 522.040466,341.021179 519.885803,341.714081 
	C519.885803,362.537994 519.885803,383.498749 519.885803,404.587677 
	C522.038208,403.935181 522.673645,401.816132 524.586914,400.065063 
M459.111176,386.410614 
	C464.513641,392.315369 469.916077,398.220123 475.724579,404.568726 
	C477.650055,395.974091 476.914246,344.977631 474.632996,341.154663 
	C465.207611,350.954865 455.269806,359.943390 446.578003,370.186371 
	C445.048401,371.988953 446.291779,373.195923 447.497192,374.432617 
	C451.216034,378.247925 454.918671,382.079041 459.111176,386.410614 
M383.491882,356.951172 
	C382.342621,358.447876 383.574524,359.020233 384.581207,359.551697 
	C391.770905,363.347473 397.144348,369.121796 402.421722,375.161346 
	C405.488495,378.670990 408.035858,382.837708 413.144714,386.308563 
	C414.466797,384.465393 415.455109,382.664520 416.831299,381.237732 
	C425.675385,372.068390 425.746704,372.056671 417.384644,362.660217 
	C414.481842,359.398346 411.093781,356.515320 406.463257,356.433716 
	C399.006317,356.302277 391.543091,356.526276 383.491882,356.951172 
M595.160034,373.641998 
	C600.329529,367.760651 606.072327,362.429657 612.886353,356.389465 
	C604.291992,356.389465 597.164795,356.255066 590.046753,356.450714 
	C586.872498,356.537964 583.799255,357.596436 581.483948,359.961243 
	C578.579529,362.927795 575.821594,366.037323 572.984497,369.070282 
	C571.786560,370.350983 570.490662,372.057922 571.977600,373.410706 
	C576.301270,377.344360 579.591064,382.407379 584.603333,385.894775 
	C588.386597,381.834198 590.737854,377.313629 595.160034,373.641998 
z"/>
<path fill="#000000" opacity="1.000000" stroke="none" 
	d="
M344.466248,605.477112 
	C351.083710,597.970825 357.459991,590.723816 363.854828,583.493286 
	C366.073853,580.984192 368.593994,581.043518 370.819611,583.260437 
	C376.270752,588.690430 380.801636,594.069763 380.549011,602.975220 
	C379.897064,625.955444 380.438934,648.967590 380.283142,671.965454 
	C380.242920,677.904480 381.706421,682.754822 386.805328,686.190796 
	C389.276764,687.856201 390.171082,690.216736 389.317352,693.157227 
	C388.414673,696.266296 385.945709,697.199768 383.157440,697.231018 
	C374.492584,697.328064 365.824982,697.322327 357.160278,697.212585 
	C354.222473,697.175354 351.430115,696.244263 350.158600,693.281982 
	C348.877167,690.296509 350.128510,687.813843 352.309875,685.645508 
	C353.761414,684.202637 354.706970,682.473389 354.705627,680.324280 
	C354.695770,664.504211 354.700348,648.684143 354.700348,631.834900 
	C347.933594,639.515076 341.677368,646.438293 335.631531,653.540527 
	C331.649231,658.218689 327.574188,662.817627 324.216949,668.031677 
	C320.689667,673.509766 318.324707,673.539490 314.570282,668.077454 
	C306.432404,656.238586 296.361176,645.996582 287.504822,634.757690 
	C286.904053,633.995239 286.320679,633.119934 285.078522,633.165710 
	C283.839447,634.157654 284.331238,635.593689 284.321136,636.841858 
	C284.217438,649.657959 284.235626,662.475464 284.061279,675.290344 
	C284.002258,679.626648 284.519165,683.491516 288.165161,686.493103 
	C289.958649,687.969604 291.371460,689.990784 290.387787,692.647522 
	C289.338593,695.481201 286.972900,697.028198 284.263916,697.091553 
	C274.772949,697.313599 265.271423,697.290283 255.778900,697.105042 
	C253.177246,697.054260 251.097519,695.539368 250.305542,692.735779 
	C249.553925,690.075073 250.684082,687.810791 252.643356,686.626709 
	C258.587463,683.034668 258.967072,677.636841 258.898956,671.506104 
	C258.652649,649.342773 258.675232,627.175476 258.764038,605.010315 
	C258.784790,599.828674 257.795929,595.555359 252.910583,592.738403 
	C250.029068,591.076843 248.858597,588.175354 250.025345,584.971619 
	C251.164978,581.842346 253.660736,580.416199 257.112854,580.617920 
	C258.578552,580.703491 260.071777,580.286621 261.554565,580.115906 
	C267.597473,579.419983 272.908203,580.266418 277.275513,585.328979 
	C290.537231,600.702148 304.261658,615.675964 317.028900,631.475830 
	C317.656799,632.252808 318.131165,633.159668 319.835052,633.455383 
	C327.827209,624.377197 336.029785,615.060059 344.466248,605.477112 
z"/>
<path fill="#000000" opacity="1.000000" stroke="none" 
	d="
M593.542175,595.515991 
	C608.020996,613.207092 604.288818,640.422729 585.092163,650.793579 
	C583.643188,651.576294 581.775146,652.404663 582.967285,654.541199 
	C588.312866,664.121277 593.569031,673.815247 601.911926,681.223877 
	C604.233398,683.285400 607.131165,684.789795 609.948608,686.175537 
	C612.838318,687.596802 613.822754,689.697388 613.157837,692.654602 
	C612.541992,695.393005 610.679077,697.164490 607.914734,697.197571 
	C597.925232,697.317078 587.926575,697.429688 577.945312,697.109741 
	C573.809753,696.977234 571.011536,692.883179 571.871704,688.395142 
	C572.466370,685.291931 571.710144,683.050354 570.094543,680.554504 
	C565.846985,673.992920 561.671936,667.371033 557.807373,660.580078 
	C555.629150,656.752380 552.584106,655.933472 548.617981,656.253418 
	C546.346497,656.436707 545.292542,657.325745 545.308777,659.623535 
	C545.356873,666.451477 545.389587,673.280090 545.338196,680.107849 
	C545.314636,683.229675 547.598267,684.842651 549.490479,686.606140 
	C551.727173,688.690613 552.442200,690.848206 551.198486,693.709961 
	C550.040466,696.374451 548.038208,697.330933 545.257324,697.315613 
	C536.430786,697.267029 527.603760,697.275513 518.777039,697.307495 
	C515.642761,697.318909 513.100647,696.194519 512.020630,693.198547 
	C511.031830,690.455627 511.847137,687.840759 514.232483,686.065430 
	C518.741394,682.709717 519.639832,677.957764 519.642395,672.822021 
	C519.653503,650.504883 519.724182,628.187317 519.587524,605.871033 
	C519.555908,600.705200 518.966736,595.572632 513.770325,592.357544 
	C511.102051,590.706604 511.258301,587.723267 512.036194,585.113403 
	C512.729248,582.788147 514.477905,580.748901 517.035095,580.831421 
	C535.261475,581.420349 553.579590,577.658020 571.715210,581.733826 
	C580.417297,583.689636 587.590271,588.374023 593.542175,595.515991 
M545.321045,627.226685 
	C545.494812,629.570251 544.513916,632.619263 548.561218,632.622375 
	C553.724182,632.626343 558.909119,632.904053 564.044373,632.522156 
	C570.240417,632.061462 575.842896,625.479126 575.631165,619.542358 
	C575.388184,612.729736 570.004456,607.501892 562.962830,607.349609 
	C558.633972,607.255859 554.294678,607.452576 549.973755,607.240540 
	C546.559082,607.072876 545.125549,608.254150 545.283142,611.804077 
	C545.497192,616.624634 545.327454,621.462219 545.321045,627.226685 
z"/>
<path fill="#000000" opacity="1.000000" stroke="none" 
	d="
M681.020569,619.006958 
	C667.360718,637.220215 675.294983,659.347595 691.549744,667.423218 
	C703.208435,673.215454 716.105957,671.312744 725.630981,662.411926 
	C729.952759,658.373413 733.073975,659.124023 735.345764,664.740234 
	C737.090698,669.054260 738.545715,673.519409 740.674866,677.635315 
	C743.141235,682.403137 741.734680,685.656250 737.507690,688.027039 
	C722.127991,696.652954 705.981262,700.445618 688.679138,694.728760 
	C660.731873,685.494812 645.140442,662.428040 646.707397,632.994080 
	C647.873230,611.095093 664.849365,589.521606 685.654724,582.552368 
	C700.904358,577.444092 715.656799,577.851990 730.246521,584.464539 
	C732.287109,585.389404 734.390320,585.528687 736.505493,585.928955 
	C741.135193,586.804993 744.501709,590.852966 741.557068,595.848999 
	C738.627686,600.819031 735.474731,605.707153 733.726318,611.396790 
	C732.412170,615.673096 728.319580,616.414001 724.922485,613.696472 
	C710.414246,602.091125 692.685120,604.132568 681.020569,619.006958 
z"/>
<path fill="#000000" opacity="1.000000" stroke="none" 
	d="
M461.315063,627.000000 
	C461.327179,640.494690 461.453064,653.491028 461.277222,666.483154 
	C461.225433,670.310669 462.256073,672.064697 466.338745,671.718689 
	C469.646759,671.438354 473.008606,671.499023 476.326965,671.712646 
	C480.049042,671.952393 483.147064,670.954712 485.892273,668.395142 
	C487.874390,666.547058 490.170929,665.000427 493.082428,666.473267 
	C495.871185,667.884155 496.237579,670.616882 496.291168,673.286682 
	C496.401398,678.781982 496.415741,684.283936 496.277008,689.778320 
	C496.150452,694.788208 493.914429,697.199768 488.878784,697.239563 
	C472.719940,697.367432 456.559357,697.302917 440.399597,697.258301 
	C437.408569,697.250061 435.265778,696.467712 437.259033,692.772827 
	C439.524597,688.573059 435.332855,687.937195 432.888550,685.982605 
	C437.102814,679.548767 435.553314,672.454102 435.599396,665.592957 
	C435.739258,644.769043 435.611359,623.943481 435.681061,603.118835 
	C435.695770,598.715149 434.927795,594.957275 430.811829,592.392700 
	C428.194672,590.762024 426.984528,588.152405 428.172089,585.041016 
	C429.287292,582.119141 431.431458,580.619873 434.714996,580.649597 
	C443.528625,580.729431 452.343414,580.672791 461.157745,580.681396 
	C464.550903,580.684753 467.629181,581.663086 468.891632,585.039368 
	C470.202972,588.546387 468.344421,591.215759 465.417023,593.028931 
	C462.186188,595.030029 461.241974,597.916626 461.281708,601.510620 
	C461.373810,609.839539 461.312592,618.170105 461.315063,627.000000 
z"/>
<path fill="#000000" opacity="1.000000" stroke="none" 
	d="
M747.756592,399.079834 
	C750.439636,385.669434 756.241577,380.527527 768.061890,380.665894 
	C775.440125,380.752258 782.163574,385.820496 784.807129,393.288696 
	C787.376038,400.546021 785.266907,409.008209 779.838989,413.725128 
	C774.007141,418.793030 767.636780,420.912598 760.141907,417.755829 
	C752.056396,414.350250 748.421387,407.938141 747.756592,399.079834 
z"/>
<path fill="#000000" opacity="1.000000" stroke="none" 
	d="
M214.801056,412.095825 
	C208.968918,403.751984 209.151016,393.580353 215.031830,386.986267 
	C221.015747,380.276489 230.257309,378.494110 238.151978,382.527161 
	C245.330338,386.194366 249.541687,394.664154 248.107758,402.550171 
	C246.593460,410.878082 238.460495,418.804199 230.469391,419.167023 
	C224.361893,419.444336 219.198578,416.871826 214.801056,412.095825 
z"/>
<path fill="#000000" opacity="1.000000" stroke="none" 
	d="
M805.709961,646.397583 
	C803.253967,646.365662 801.259094,646.366333 799.264832,646.329590 
	C796.077820,646.270935 793.693726,644.771240 792.946899,641.704163 
	C792.155396,638.453491 793.740967,635.912720 796.499817,634.136414 
	C798.398071,632.914124 800.522766,632.776917 802.724731,632.776306 
	C822.505249,632.770386 842.285828,632.733276 862.066223,632.660767 
	C864.786804,632.650757 867.436646,632.795959 869.531799,634.747742 
	C871.437561,636.523010 872.725464,638.729187 871.933105,641.403015 
	C871.202393,643.868774 869.810913,646.254028 866.892883,646.243713 
	C846.651611,646.171448 826.415771,648.427185 805.709961,646.397583 
z"/>
<path fill="#000000" opacity="1.000000" stroke="none" 
	d="
M687.101135,544.308350 
	C683.811218,544.173950 680.984558,544.594910 678.230652,543.480835 
	C675.838135,542.513000 674.195312,540.832642 673.946289,538.431885 
	C673.669861,535.767090 675.154297,533.714905 677.584839,532.406616 
	C682.624451,529.694031 688.053223,530.753235 693.293457,531.005127 
	C711.417786,531.876038 729.526733,532.181702 747.643433,530.933594 
	C750.131104,530.762207 752.601135,530.745911 755.022461,531.721741 
	C758.155579,532.984314 760.225708,535.158081 759.679443,538.512512 
	C759.122803,541.930420 756.664917,543.984802 753.058777,544.268982 
	C751.733337,544.373474 750.394592,544.322266 749.061951,544.322083 
	C728.569458,544.319519 708.076965,544.313721 687.101135,544.308350 
z"/>
<path fill="#000000" opacity="1.000000" stroke="none" 
	d="
M139.224579,646.369751 
	C134.718445,646.548157 131.166840,645.640076 130.829544,640.888672 
	C130.500290,636.250183 133.633362,634.097168 137.747192,633.164124 
	C138.868973,632.909668 140.048096,632.809326 141.201294,632.806702 
	C159.652374,632.764221 178.103577,632.715576 196.554611,632.748047 
	C202.150940,632.757874 204.953293,634.814697 205.310928,638.808716 
	C205.764114,643.869812 203.452087,646.018005 197.920654,646.395386 
	C178.505768,647.719788 159.100662,646.978760 139.224579,646.369751 
z"/>
<path fill="#000000" opacity="1.000000" stroke="none" 
	d="
M271.000458,530.902466 
	C284.499573,530.893921 297.499084,530.841858 310.497894,530.916809 
	C312.972351,530.931091 315.469391,531.310486 317.910645,531.765137 
	C321.359131,532.407349 323.152863,534.859436 323.076508,538.152832 
	C322.997711,541.551147 320.715759,543.536377 317.404419,544.152222 
	C316.270569,544.363098 315.079803,544.305725 313.914978,544.306274 
	C294.082581,544.315369 274.250153,544.328796 254.417816,544.306580 
	C248.548325,544.300049 245.916550,542.443787 245.733231,538.351624 
	C245.537354,533.979431 248.827713,531.077087 254.502411,530.929199 
	C259.831757,530.790344 265.167633,530.901855 271.000458,530.902466 
z"/>
<path fill="#000000" opacity="1.000000" stroke="none" 
	d="
M384.222778,526.383911 
	C375.044617,521.258179 371.625000,513.662903 374.291138,505.027344 
	C376.702606,497.216492 384.285278,492.158264 392.735535,492.723541 
	C401.308563,493.297028 408.393219,501.382477 408.322449,510.512238 
	C408.253876,519.358032 401.076477,527.031189 392.475250,527.306641 
	C389.841095,527.391052 387.128113,527.766724 384.222778,526.383911 
z"/>
<path fill="#000000" opacity="1.000000" stroke="none" 
	d="
M620.338013,502.028717 
	C624.686035,511.701233 621.715088,521.392883 613.401672,525.486023 
	C604.916870,529.663574 594.629944,526.387451 590.207092,518.099121 
	C585.558716,509.388153 588.115417,500.207825 596.539368,495.362274 
	C605.228210,490.364349 614.655762,492.875549 620.338013,502.028717 
z"/>
<path fill="#000000" opacity="1.000000" stroke="none" 
	d="
M743.929443,166.152802 
	C736.541077,167.682434 731.569946,163.643295 733.371277,157.910690 
	C734.435669,154.523178 736.446167,151.850723 740.369995,151.804611 
	C743.837646,151.763855 746.653992,153.521210 747.844238,156.701096 
	C749.291504,160.567810 748.081848,163.906967 743.929443,166.152802 
z"/>
<path fill="#000000" opacity="1.000000" stroke="none" 
	d="
M260.917175,164.832428 
	C257.212280,167.498810 253.877457,167.403030 250.719986,164.645477 
	C248.324860,162.553711 247.822174,159.895569 248.882751,156.988983 
	C249.921051,154.143387 251.978790,152.205338 255.012177,151.874893 
	C258.033478,151.545761 260.528290,152.971725 262.188721,155.457474 
	C264.340149,158.678314 263.425781,161.727264 260.917175,164.832428 
z"/>
<path fill="#000000" opacity="1.000000" stroke="none" 
	d="
M773.621216,645.980713 
	C768.581055,641.641846 769.167358,636.014954 774.451538,633.635559 
	C777.135986,632.426819 779.699951,632.635254 781.901794,634.434204 
	C783.964539,636.119507 784.667114,638.515564 783.914917,641.139099 
	C783.062317,644.112793 781.116699,645.980530 777.956665,646.261292 
	C776.655334,646.376892 775.326416,646.182068 773.621216,645.980713 
z"/>
<path fill="#000000" opacity="1.000000" stroke="none" 
	d="
M228.207153,642.198853 
	C226.172821,646.378113 222.822540,646.908447 219.217346,646.028503 
	C216.647797,645.401367 215.000183,643.476074 214.751343,640.685547 
	C214.450470,637.311646 216.052124,635.024414 218.955994,633.479248 
	C221.516388,632.116699 223.868332,632.928650 225.937225,634.383179 
	C228.496429,636.182190 229.193756,638.816956 228.207153,642.198853 
z"/>
</svg>